<mxfile host="app.diagrams.net" modified="2020-11-09T14:31:29.564Z" agent="5.0 (iPad; CPU OS 14_1 like Mac OS X) AppleWebKit/605.1.15 (KHTML, like Gecko) CriOS/86.0.4240.93 Mobile/15E148 Safari/604.1" etag="VeiC3UJ5hwjNXrUPLvWB" version="13.9.2" type="github">
  <diagram id="fYvMIWfTbokDXKE26cFQ" name="Page-1">
    <mxGraphModel dx="448" dy="1200" grid="1" gridSize="10" guides="1" tooltips="1" connect="1" arrows="1" fold="1" page="1" pageScale="1" pageWidth="827" pageHeight="1169" math="0" shadow="0">
      <root>
        <mxCell id="0" />
        <mxCell id="1" parent="0" />
        <mxCell id="pGA5LnBUpB0eGnMVnUTT-3" value="" style="edgeStyle=orthogonalEdgeStyle;rounded=0;orthogonalLoop=1;jettySize=auto;html=1;" edge="1" parent="1" source="pGA5LnBUpB0eGnMVnUTT-1" target="pGA5LnBUpB0eGnMVnUTT-2">
          <mxGeometry relative="1" as="geometry" />
        </mxCell>
        <mxCell id="pGA5LnBUpB0eGnMVnUTT-1" value="" style="rounded=1;whiteSpace=wrap;html=1;" vertex="1" parent="1">
          <mxGeometry x="320" y="150" width="120" height="60" as="geometry" />
        </mxCell>
        <mxCell id="pGA5LnBUpB0eGnMVnUTT-2" value="" style="whiteSpace=wrap;html=1;rounded=1;" vertex="1" parent="1">
          <mxGeometry x="320" y="290" width="120" height="60" as="geometry" />
        </mxCell>
      </root>
    </mxGraphModel>
  </diagram>
</mxfile>
